<?xml version="1.0" encoding="UTF-8" standalone="no"?>
<!DOCTYPE svg PUBLIC "-//W3C//DTD SVG 1.1//EN"
        "http://www.w3.org/Graphics/SVG/1.1/DTD/svg11.dtd">
<!-- Generated by graphviz version 2.40.1 (20161225.0304)
 -->
<!-- Title: detangled Pages: 1 -->
<svg width="319pt" height="188pt"
     viewBox="0.00 0.00 318.98 188.00" xmlns="http://www.w3.org/2000/svg" xmlns:xlink="http://www.w3.org/1999/xlink">
    <g id="graph0" class="graph" transform="scale(1 1) rotate(0) translate(4 184)">
        <title>detangled</title>
        <polygon fill="#ffffff" stroke="transparent" points="-4,4 -4,-184 314.9779,-184 314.9779,4 -4,4"/>
        <!-- PayrollService -->
        <g id="node1" class="node">
            <title>PayrollService</title>
            <ellipse fill="none" stroke="#000000" cx="104.7596" cy="-162" rx="62.3407" ry="18"/>
            <text text-anchor="middle" x="104.7596" y="-157.8" font-family="Times,serif" font-size="14.00"
                  fill="#000000">PayrollService
            </text>
        </g>
        <!-- CalendarDay -->
        <g id="node2" class="node">
            <title>CalendarDay</title>
            <ellipse fill="none" stroke="#000000" cx="56.7596" cy="-18" rx="56.5201" ry="18"/>
            <text text-anchor="middle" x="56.7596" y="-13.8" font-family="Times,serif" font-size="14.00" fill="#000000">
                CalendarDay
            </text>
        </g>
        <!-- PayrollService&#45;&gt;CalendarDay -->
        <g id="edge1" class="edge">
            <title>PayrollService&#45;&gt;CalendarDay</title>
            <path fill="none" stroke="#000000"
                  d="M69.9086,-146.9675C53.9936,-138.1183 36.725,-125.2379 27.7596,-108 17.1489,-87.599 26.8329,-62.5774 37.7788,-44.1001"/>
            <polygon fill="#000000" stroke="#000000"
                     points="40.7674,-45.9228 43.1702,-35.6041 34.8569,-42.1722 40.7674,-45.9228"/>
        </g>
        <!-- PayrollDatabase -->
        <g id="node3" class="node">
            <title>PayrollDatabase</title>
            <ellipse fill="none" stroke="#000000" cx="104.7596" cy="-90" rx="68.1201" ry="18"/>
            <text text-anchor="middle" x="104.7596" y="-85.8" font-family="Times,serif" font-size="14.00"
                  fill="#000000">PayrollDatabase
            </text>
        </g>
        <!-- PayrollService&#45;&gt;PayrollDatabase -->
        <g id="edge2" class="edge">
            <title>PayrollService&#45;&gt;PayrollDatabase</title>
            <path fill="none" stroke="#000000"
                  d="M104.7596,-143.8314C104.7596,-136.131 104.7596,-126.9743 104.7596,-118.4166"/>
            <polygon fill="#000000" stroke="#000000"
                     points="108.2597,-118.4132 104.7596,-108.4133 101.2597,-118.4133 108.2597,-118.4132"/>
        </g>
        <!-- PayCommand -->
        <g id="node4" class="node">
            <title>PayCommand</title>
            <ellipse fill="none" stroke="#000000" cx="250.7596" cy="-90" rx="60.4375" ry="18"/>
            <text text-anchor="middle" x="250.7596" y="-85.8" font-family="Times,serif" font-size="14.00"
                  fill="#000000">PayCommand
            </text>
        </g>
        <!-- PayrollService&#45;&gt;PayCommand -->
        <g id="edge3" class="edge">
            <title>PayrollService&#45;&gt;PayCommand</title>
            <path fill="none" stroke="#000000"
                  d="M136.4394,-146.3771C158.0367,-135.7263 186.8288,-121.5275 210.1147,-110.0441"/>
            <polygon fill="#000000" stroke="#000000"
                     points="211.972,-113.0306 219.3927,-105.4686 208.8759,-106.7525 211.972,-113.0306"/>
        </g>
        <!-- PayrollDatabase&#45;&gt;CalendarDay -->
        <g id="edge4" class="edge">
            <title>PayrollDatabase&#45;&gt;CalendarDay</title>
            <path fill="none" stroke="#000000"
                  d="M92.8944,-72.2022C87.2982,-63.8079 80.5074,-53.6218 74.3301,-44.3558"/>
            <polygon fill="#000000" stroke="#000000"
                     points="77.1138,-42.2216 68.6546,-35.8425 71.2895,-46.1045 77.1138,-42.2216"/>
        </g>
        <!-- Employee -->
        <g id="node5" class="node">
            <title>Employee</title>
            <ellipse fill="none" stroke="#000000" cx="213.7596" cy="-18" rx="45.92" ry="18"/>
            <text text-anchor="middle" x="213.7596" y="-13.8" font-family="Times,serif" font-size="14.00"
                  fill="#000000">Employee
            </text>
        </g>
        <!-- PayrollDatabase&#45;&gt;Employee -->
        <g id="edge5" class="edge">
            <title>PayrollDatabase&#45;&gt;Employee</title>
            <path fill="none" stroke="#000000"
                  d="M130.3152,-73.1192C145.6058,-63.019 165.1784,-50.0903 181.5243,-39.293"/>
            <polygon fill="#000000" stroke="#000000"
                     points="183.8107,-41.9774 190.2256,-33.5454 179.9525,-36.1366 183.8107,-41.9774"/>
        </g>
        <!-- PayCommand&#45;&gt;Employee -->
        <g id="edge6" class="edge">
            <title>PayCommand&#45;&gt;Employee</title>
            <path fill="none" stroke="#000000"
                  d="M241.6135,-72.2022C237.3887,-63.981 232.2806,-54.041 227.5987,-44.9301"/>
            <polygon fill="#000000" stroke="#000000"
                     points="230.6124,-43.1371 222.9286,-35.8425 224.3864,-46.3366 230.6124,-43.1371"/>
        </g>
    </g>
</svg>
